<?xml version="1.0" encoding="UTF-8" standalone="no"?>
<svg
   width="64"
   height="64"
   version="1.1"
   viewBox="0 0 64 64"
   id="svg8"
   sodipodi:docname="Extension.svg"
   inkscape:version="1.4.3 (0d15f75, 2025-12-25)"
   xmlns:inkscape="http://www.inkscape.org/namespaces/inkscape"
   xmlns:sodipodi="http://sodipodi.sourceforge.net/DTD/sodipodi-0.dtd"
   xmlns:xlink="http://www.w3.org/1999/xlink"
   xmlns="http://www.w3.org/2000/svg"
   xmlns:svg="http://www.w3.org/2000/svg">
  <defs
     id="defs8">
    <linearGradient
       id="linearGradient10"
       inkscape:collect="always">
      <stop
         style="stop-color:#00b0ff;stop-opacity:1;"
         offset="0"
         id="stop10" />
      <stop
         style="stop-color:#0074dd;stop-opacity:1;"
         offset="1"
         id="stop11" />
    </linearGradient>
    <linearGradient
       id="linearGradient8"
       inkscape:collect="always">
      <stop
         style="stop-color:#00d500;stop-opacity:1;"
         offset="0"
         id="stop8" />
      <stop
         style="stop-color:#00af00;stop-opacity:1;"
         offset="1"
         id="stop9" />
    </linearGradient>
    <linearGradient
       inkscape:collect="always"
       xlink:href="#linearGradient8"
       id="linearGradient9"
       x1="895.54138"
       y1="285.97327"
       x2="895.54138"
       y2="695.51672"
       gradientUnits="userSpaceOnUse" />
    <linearGradient
       inkscape:collect="always"
       xlink:href="#linearGradient10"
       id="linearGradient11"
       x1="311.42609"
       y1="754.62048"
       x2="311.42609"
       y2="1220.7985"
       gradientUnits="userSpaceOnUse" />
  </defs>
  <sodipodi:namedview
     id="namedview8"
     pagecolor="#ffffff"
     bordercolor="#666666"
     borderopacity="1.0"
     inkscape:showpageshadow="2"
     inkscape:pageopacity="0.0"
     inkscape:pagecheckerboard="0"
     inkscape:deskcolor="#d1d1d1"
     inkscape:document-units="px"
     inkscape:zoom="5.7648097"
     inkscape:cx="33.652455"
     inkscape:cy="39.203375"
     inkscape:window-width="2560"
     inkscape:window-height="1381"
     inkscape:window-x="2560"
     inkscape:window-y="137"
     inkscape:window-maximized="1"
     inkscape:current-layer="svg8" />
  <g
     id="g13"
     transform="matrix(0.06114204,0,0,0.06114204,-4.0325426,-4.2870351)">
    <path
       d="m 464.86,685.95 c 0,89.688 -66.543,162.39 -148.63,162.39 -82.086,0 -148.63,-72.707 -148.63,-162.39 0,-89.691 66.543,-162.4 148.63,-162.4 82.09,0 148.63,72.707 148.63,162.4 z"
       id="path1"
       style="fill:#f7be91;fill-opacity:1" />
    <path
       d="M 311.43,858.56 C 66.11,858.56 78.44,1073.3 78.44,1073.3 v 43.559 H 544.41 V 1073.3 c 0.008,-0.01 12.348,-214.74 -232.98,-214.74 z m 175.04,97.863 c -0.66016,0.49219 -1.4141,0.71875 -2.1719,0.71875 -1.1055,0 -2.1836,-0.50391 -2.9023,-1.4531 -24.023,-32.184 -58.055,-54.48 -101.12,-66.277 -1.9336,-0.52734 -3.0586,-2.5195 -2.5312,-4.4531 0.51562,-1.9336 2.5195,-3.0469 4.4414,-2.5312 44.664,12.238 79.992,35.438 105.01,68.93 1.1953,1.5977 0.87109,3.8633 -0.72266,5.0664 z m 29.797,63.898 c -0.33594,0.1094 -0.67188,0.1445 -1.0078,0.1445 -1.5703,0 -3.0117,-1.0195 -3.4688,-2.6055 -4.5977,-15.805 -10.812,-30.62497 -18.516,-44.06197 -0.99609,-1.7383 -0.39453,-3.9492 1.3438,-4.9453 1.7383,-0.98438 3.9492,-0.39453 4.9453,1.3438 7.9805,13.934 14.438,29.293 19.176,45.63697 0.55078,1.9336 -0.55469,3.9375 -2.4727,4.4883 z"
       id="path2"
       style="fill:url(#linearGradient11)" />
    <path
       d="m 1030.3,225.65 c 0,78.785 -58.461,142.66 -130.57,142.66 -72.109,0 -130.57,-63.871 -130.57,-142.66 0,-78.789 58.461,-142.66 130.57,-142.66 72.113,0 130.57,63.867 130.57,142.66 z"
       id="path3"
       style="fill:#f7be91;fill-opacity:1" />
    <path
       d="m 895.54,377.29 c -215.51,0 -204.68,188.64 -204.68,188.64 v 38.27 h 409.36 v -38.27 c 0.012,0 10.836,-188.64 -204.67,-188.64 z m 153.77,85.969 c -0.5742,0.43359 -1.2461,0.63672 -1.8945,0.63672 -0.9727,0 -1.9336,-0.44531 -2.543,-1.2734 -21.121,-28.262 -51,-47.855 -88.836,-58.223 -1.6914,-0.46875 -2.6875,-2.207 -2.2305,-3.9102 0.46875,-1.6914 2.2188,-2.6758 3.9102,-2.2188 39.227,10.754 70.262,31.129 92.242,60.551 1.043,1.3984 0.7656,3.3906 -0.6484,4.4375 z m 26.184,56.145 c -0.3008,0.0859 -0.5898,0.13281 -0.8867,0.13281 -1.3789,0 -2.6523,-0.89844 -3.0469,-2.293 -4.0195,-13.871 -9.5039,-26.902 -16.262,-38.711 -0.875,-1.5234 -0.3477,-3.4688 1.1758,-4.3438 1.5234,-0.86328 3.4688,-0.33594 4.3438,1.1875 7.0078,12.238 12.684,25.738 16.836,40.105 0.4922,1.668 -0.4805,3.4297 -2.1602,3.9219 z"
       id="path4"
       style="fill:url(#linearGradient9)" />
    <g
       id="g11"
       style="fill:#ff0027;fill-opacity:1;stroke:none">
      <path
         d="m 273.55,512.28 c -9,0 -16.777,-6.7422 -17.855,-15.91 -0.46875,-3.9727 -10.5,-98.242 64.234,-192.45 75.684,-95.398 208.01,-154.44 393.3,-175.5 9.8633,-1.1641 18.793,5.9766 19.922,15.852 1.129,9.8754 -5.9766,18.793 -15.852,19.922 -175.44,19.945 -299.64,74.484 -369.17,162.11 -65.543,82.621 -56.773,165.06 -56.688,165.89 1.1523,9.875 -5.9141,18.816 -15.781,19.969 -0.70703,0.0781 -1.418,0.11719 -2.1133,0.11719 z"
         id="path5"
         style="fill:#ff0027;fill-opacity:1;stroke:none" />
      <path
         d="m 667.3,232.39 -25.477,-25.438 58.621,-58.691 -57.793,-51.207 23.867,-26.938 86.398,76.547 z"
         id="path6"
         style="fill:#ff0027;fill-opacity:1;stroke:none" />
    </g>
    <g
       id="g12"
       style="fill:#ff0027;fill-opacity:1;stroke:none">
      <path
         d="m 621.84,1044.9 c -8.7109,0 -16.367,-6.3359 -17.762,-15.215 -1.5352,-9.8164 5.1719,-19.02 15,-20.566 180.31,-28.246 306.21,-90.012 374.23,-183.59 64.176,-88.297 51.504,-173.23 51.371,-174.09 -1.5703,-9.8164 5.1133,-19.043 14.93,-20.617 9.8047,-1.6211 19.043,5.1133 20.617,14.93 0.6484,4.0664 15.07,100.68 -57.793,200.93 -73.836,101.61 -207.67,168.21 -397.78,198 -0.95703,0.1406 -1.8906,0.2148 -2.8164,0.2148 z"
         id="path7"
         style="fill:#ff0027;fill-opacity:1;stroke:none" />
      <path
         d="m 675.85,1103 -91.992,-74.82 84.18,-91.727 26.52,24.336 -58.344,63.574 62.34,50.711 z"
         id="path8"
         style="fill:#ff0027;fill-opacity:1;stroke:none" />
    </g>
  </g>
</svg>
