<?xml version="1.0" encoding="UTF-8" standalone="no"?>
<svg
   width="64"
   height="64"
   version="1.1"
   viewBox="0 0 64 64"
   id="svg8"
   sodipodi:docname="SwitchUserGroup.svg"
   inkscape:version="1.4.3 (0d15f75, 2025-12-25)"
   xml:space="preserve"
   xmlns:inkscape="http://www.inkscape.org/namespaces/inkscape"
   xmlns:sodipodi="http://sodipodi.sourceforge.net/DTD/sodipodi-0.dtd"
   xmlns="http://www.w3.org/2000/svg"
   xmlns:svg="http://www.w3.org/2000/svg"><defs
     id="defs8"><marker
       style="overflow:visible"
       id="marker3"
       refX="0"
       refY="0"
       orient="auto-start-reverse"
       inkscape:stockid="Rounded arrow"
       markerWidth="0.5"
       markerHeight="0.5"
       viewBox="0 0 1 1"
       inkscape:isstock="true"
       inkscape:collect="always"
       preserveAspectRatio="xMidYMid"><path
         transform="scale(0.7)"
         d="m -0.21114562,-4.1055728 6.42229122,3.21114561 a 1,1 90 0 1 0,1.78885438 L -0.21114562,4.1055728 A 1.236068,1.236068 31.717474 0 1 -2,3 v -6 a 1.236068,1.236068 148.28253 0 1 1.78885438,-1.1055728 z"
         style="fill:context-stroke;fill-rule:evenodd;stroke:none"
         id="path3" /></marker><marker
       style="overflow:visible"
       id="RoundedArrow"
       refX="0"
       refY="0"
       orient="auto-start-reverse"
       inkscape:stockid="Rounded arrow"
       markerWidth="0.5"
       markerHeight="0.5"
       viewBox="0 0 1 1"
       inkscape:isstock="true"
       inkscape:collect="always"
       preserveAspectRatio="xMidYMid"><path
         transform="scale(0.7)"
         d="m -0.21114562,-4.1055728 6.42229122,3.21114561 a 1,1 90 0 1 0,1.78885438 L -0.21114562,4.1055728 A 1.236068,1.236068 31.717474 0 1 -2,3 v -6 a 1.236068,1.236068 148.28253 0 1 1.78885438,-1.1055728 z"
         style="fill:context-stroke;fill-rule:evenodd;stroke:none"
         id="path8" /></marker></defs><sodipodi:namedview
     id="namedview8"
     pagecolor="#ffffff"
     bordercolor="#666666"
     borderopacity="1.0"
     inkscape:showpageshadow="2"
     inkscape:pageopacity="0.0"
     inkscape:pagecheckerboard="0"
     inkscape:deskcolor="#d1d1d1"
     inkscape:document-units="px"
     inkscape:zoom="9.5126899"
     inkscape:cx="33.113662"
     inkscape:cy="36.004537"
     inkscape:window-width="2106"
     inkscape:window-height="1186"
     inkscape:window-x="2832"
     inkscape:window-y="196"
     inkscape:window-maximized="0"
     inkscape:current-layer="svg8" /><path
     d="m 28.998858,56.196572 c -3.373715,-0.962286 -5.730286,-2.281143 -8.07543,-3.186286 -0.226286,-0.736 -0.761142,-2.041143 -0.891428,-5.04 1.613714,-1.627429 2.770286,-3.922286 2.770286,-5.771429 v -4.402286 c 0,-3.199999 -2.601144,-5.798857 -6.002286,-5.798857 h -1.6 c -3.2,0 -6.0022855,2.598858 -6.0022855,5.798857 v 4.402286 c 0,1.865143 1.1702855,4.185143 2.8068575,5.814857 -0.05486,2.944 -0.608001,4.242286 -0.870858,4.978286 -2.3657139,0.900572 -4.7337139,2.237714 -8.1325712,3.206857 0,0 -2.80228566,1.6 -3.0011428,7.801143 h 32 c -0.198857,-6.402286 -3.001142,-7.803428 -3.001142,-7.803428 z"
     id="path1-9"
     style="fill:#ffffff;fill-opacity:1;stroke-width:2.28572" /><path
     d="m 60.998858,24.198858 c -3.373715,-0.962286 -5.730286,-2.281143 -8.07543,-3.186286 -0.226286,-0.736 -0.761142,-2.041143 -0.891428,-5.04 1.613714,-1.627429 2.770286,-3.922286 2.770286,-5.771429 V 5.798857 C 54.802286,2.598858 52.201142,0 48.8,0 H 47.2 C 44,0 41.197715,2.598858 41.197715,5.798857 v 4.402286 c 0,1.865143 1.170285,4.185143 2.806857,5.814857 -0.05486,2.944 -0.608001,4.242286 -0.870858,4.978286 C 40.768,21.894858 38.4,23.232 35.001143,24.201143 c 0,0 -2.802286,1.6 -3.001143,7.801143 H 64 C 63.801143,25.6 60.998858,24.198858 60.998858,24.198858 Z"
     id="path1"
     style="fill:#ffffff;fill-opacity:1;stroke-width:2.28572" /><path
     style="fill:none;stroke:#ffffff;stroke-width:2.84137;stroke-linecap:butt;stroke-linejoin:miter;stroke-dasharray:none;stroke-opacity:1;marker-start:url(#RoundedArrow);marker-end:url(#marker3)"
     d="M 29.273396,9.2126829 H 16.212683 V 22.273396"
     id="path2" /><path
     style="fill:none;stroke:#ffffff;stroke-width:2.84137;stroke-linecap:butt;stroke-linejoin:miter;stroke-dasharray:none;stroke-opacity:1;marker-start:url(#RoundedArrow);marker-end:url(#marker3)"
     d="M 40.381876,56.008758 H 53.442589 V 42.948045"
     id="path4" /></svg>
